<svg width="44" height="44" viewBox="0 0 44 44" fill="none" xmlns="http://www.w3.org/2000/svg">
<circle cx="22" cy="22" r="22" fill="#157A6E"/>
<g clip-path="url(#clip0_1095_3822)">
<path d="M23.8 35C21.64 35 19.8 34.24 18.28 32.72C16.76 31.2 16 29.36 16 27.2V26.51C14.28 26.23 12.85 25.425 11.71 24.095C10.57 22.765 10 21.2 10 19.4V13.4C10 13.06 10.115 12.775 10.345 12.545C10.575 12.315 10.86 12.2 11.2 12.2H13.6C13.6 11.86 13.715 11.575 13.945 11.345C14.175 11.115 14.46 11 14.8 11C15.14 11 15.425 11.115 15.655 11.345C15.885 11.575 16 11.86 16 12.2V14.6C16 14.94 15.885 15.225 15.655 15.455C15.425 15.685 15.14 15.8 14.8 15.8C14.46 15.8 14.175 15.685 13.945 15.455C13.715 15.225 13.6 14.94 13.6 14.6H12.4V19.4C12.4 20.72 12.87 21.85 13.81 22.79C14.75 23.73 15.88 24.2 17.2 24.2C18.52 24.2 19.65 23.73 20.59 22.79C21.53 21.85 22 20.72 22 19.4V14.6H20.8C20.8 14.94 20.685 15.225 20.455 15.455C20.225 15.685 19.94 15.8 19.6 15.8C19.26 15.8 18.975 15.685 18.745 15.455C18.515 15.225 18.4 14.94 18.4 14.6V12.2C18.4 11.86 18.515 11.575 18.745 11.345C18.975 11.115 19.26 11 19.6 11C19.94 11 20.225 11.115 20.455 11.345C20.685 11.575 20.8 11.86 20.8 12.2H23.2C23.54 12.2 23.825 12.315 24.055 12.545C24.285 12.775 24.4 13.06 24.4 13.4V19.4C24.4 21.2 23.83 22.765 22.69 24.095C21.55 25.425 20.12 26.23 18.4 26.51V27.2C18.4 28.7 18.925 29.975 19.975 31.025C21.025 32.075 22.3 32.6 23.8 32.6C25.3 32.6 26.575 32.075 27.625 31.025C28.675 29.975 29.2 28.7 29.2 27.2V25.19C28.5 24.93 27.925 24.495 27.475 23.885C27.025 23.275 26.8 22.58 26.8 21.8C26.8 20.8 27.15 19.95 27.85 19.25C28.55 18.55 29.4 18.2 30.4 18.2C31.4 18.2 32.25 18.55 32.95 19.25C33.65 19.95 34 20.8 34 21.8C34 22.58 33.775 23.275 33.325 23.885C32.875 24.495 32.3 24.93 31.6 25.19V27.2C31.6 29.36 30.84 31.2 29.32 32.72C27.8 34.24 25.96 35 23.8 35ZM30.4 23C30.74 23 31.025 22.885 31.255 22.655C31.485 22.425 31.6 22.14 31.6 21.8C31.6 21.46 31.485 21.175 31.255 20.945C31.025 20.715 30.74 20.6 30.4 20.6C30.06 20.6 29.775 20.715 29.545 20.945C29.315 21.175 29.2 21.46 29.2 21.8C29.2 22.14 29.315 22.425 29.545 22.655C29.775 22.885 30.06 23 30.4 23Z" fill="#F3FFFA"/>
</g>
<defs>
<clipPath id="clip0_1095_3822">
<rect width="24" height="24" fill="white" transform="translate(10 11)"/>
</clipPath>
</defs>
</svg>
